<?xml version="1.0" encoding="UTF-8" standalone="no"?>
<svg
   height="24"
   viewBox="0 -960 960 960"
   width="24"
   version="1.1"
   id="svg1"
   sodipodi:docname="s2a.svg"
   inkscape:version="1.3.2 (091e20ef0f, 2023-11-25, custom)"
   xmlns:inkscape="http://www.inkscape.org/namespaces/inkscape"
   xmlns:sodipodi="http://sodipodi.sourceforge.net/DTD/sodipodi-0.dtd"
   xmlns="http://www.w3.org/2000/svg"
   xmlns:svg="http://www.w3.org/2000/svg">
  <defs
     id="defs1" />
  <sodipodi:namedview
     id="namedview1"
     pagecolor="#ffffff"
     bordercolor="#000000"
     borderopacity="0.25"
     inkscape:showpageshadow="2"
     inkscape:pageopacity="0.0"
     inkscape:pagecheckerboard="0"
     inkscape:deskcolor="#d1d1d1"
     inkscape:zoom="20.531584"
     inkscape:cx="12.127656"
     inkscape:cy="12.200714"
     inkscape:window-width="1280"
     inkscape:window-height="731"
     inkscape:window-x="0"
     inkscape:window-y="0"
     inkscape:window-maximized="1"
     inkscape:current-layer="svg1" />
  <circle
     style="fill:#4fff6c;fill-opacity:1;stroke-width:47.3019"
     id="path2"
     cx="480"
     cy="-480"
     r="480" />
  <path
     d="m 92.2371,-307.5089 q 7.93152,-94.29689 57.7238,-173.61203 49.79228,-79.31514 132.63254,-126.02293 l -65.21468,-112.80375 q -5.28768,-7.93153 -2.64384,-16.74432 2.64384,-8.81277 11.45663,-13.2192 7.05024,-4.40639 15.86303,-1.76253 8.8128,2.64382 14.10047,10.57534 l 65.21467,112.80374 Q 397.15974,-660.02064 480,-660.02064 q 82.84025,0 158.63027,31.72606 l 65.21468,-112.80374 q 5.28767,-7.93152 14.10047,-10.57534 8.8128,-2.64386 15.86303,1.76253 8.8128,4.40643 11.45663,13.2192 2.64384,8.81279 -2.64383,16.74432 l -65.21467,112.80375 q 82.84024,46.70779 132.63253,126.02293 49.79228,79.31514 57.72379,173.61203 z m 211.50703,-96.94074 q 18.50687,0 31.28542,-12.77856 12.77855,-12.77855 12.77855,-31.2854 0,-18.50688 -12.77855,-31.28544 -12.77855,-12.77853 -31.28542,-12.77853 -18.50687,0 -31.28541,12.77853 -12.77855,12.77856 -12.77855,31.28544 0,18.50686 12.77855,31.28541 12.77854,12.77855 31.28541,12.77855 z m 352.51173,0 q 18.50686,0 31.28541,-12.77856 12.77855,-12.77855 12.77855,-31.2854 0,-18.50688 -12.77855,-31.28544 -12.77855,-12.77853 -31.28541,-12.77853 -18.50687,0 -31.28542,12.77853 -12.77855,12.77856 -12.77855,31.28544 0,18.50686 12.77855,31.28541 12.77855,12.77855 31.28542,12.77855 z"
     id="path3"
     style="fill:#000000;fill-opacity:1;stroke-width:0.88128" />
</svg>
